<svg t="1544376679028" class="icon" style="" viewBox="0 0 1024 1024" version="1.1" xmlns="http://www.w3.org/2000/svg" p-id="5479" xmlns:xlink="http://www.w3.org/1999/xlink" width="200" height="200"><defs><style type="text/css"></style></defs><path d="M526.632 99.58l417.792 235.008a29.928 29.928 0 0 1 0 52.168l-417.792 235.008a29.928 29.928 0 0 1-29.344 0L79.496 386.76a29.928 29.928 0 0 1 0-52.168l417.792-235.008a29.928 29.928 0 0 1 29.344 0z m433.032 626.184a29.928 29.928 0 0 1-15.24 24.924l-417.792 235.008a29.928 29.928 0 0 1-29.344 0L79.496 750.688a29.912 29.912 0 0 1-15.252-25.368l-0.008 0.008v-68.024l45.292 24.32 0.08-0.04 3.188 1.796 0.392 0.208-0.008 0.008 384.108 216.06a29.928 29.928 0 0 0 29.344 0l387.02-217.7 46.012-26.22v67.784c0.028 0.74 0.028 1.48 0 2.224v0.02z m0-180a29.928 29.928 0 0 1-15.24 24.924l-417.792 235.008a29.928 29.928 0 0 1-29.344 0L79.496 570.688a29.912 29.912 0 0 1-15.252-25.368l-0.008 0.008v-68.024l45.292 24.32 0.08-0.04 3.188 1.796 0.392 0.208-0.008 0.008 384.108 216.06a29.928 29.928 0 0 0 29.344 0l387.02-217.7 46.012-26.22v67.784c0.028 0.74 0.028 1.48 0 2.224v0.02z" fill="#ffffff" p-id="5480"></path></svg>