<svg t="1544375673112" class="icon" style="" viewBox="0 0 1024 1024" version="1.1" xmlns="http://www.w3.org/2000/svg" p-id="3121" xmlns:xlink="http://www.w3.org/1999/xlink" width="200" height="200"><defs><style type="text/css"></style></defs><path d="M887.98245925 105.19134815H133.34755555c-56.43377778 0-103.8866963 45.14702222-103.8866963 103.8866963V690.40355555c0 56.43377778 45.14702222 103.8866963 103.8866963 103.8866963h754.6349037c56.43377778 0 103.8866963-45.14702222 103.8866963-103.8866963V209.19940741c0.12136297-56.55514075-47.33155555-104.00805925-103.8866963-104.00805926" fill="#19B2AF" p-id="3122"></path><path d="M887.98245925 89.41416297H133.34755555c-65.536 0-119.78524445 54.24924445-119.78524444 119.78524444V690.40355555c0 65.536 54.24924445 119.78524445 119.78524444 119.78524445h754.6349037c65.536 0 119.78524445-54.24924445 119.78524445-119.78524445V209.19940741c0-65.536-54.24924445-119.78524445-119.78524445-119.78524444zM973.90743703 690.40355555c0 47.45291852-38.47205925 85.92497778-85.80361481 85.92497778H133.34755555c-47.45291852 0-85.92497778-38.3506963-85.92497777-85.92497778V209.19940741c0-47.45291852 38.47205925-85.92497778 85.92497777-85.92497778h754.6349037c47.45291852 0 85.80361482 38.47205925 85.80361483 85.92497778V690.40355555z m0 0" fill="#FCFCFF" p-id="3123"></path>
<path d="M94.8754963 213.68983703h-4.49042963c-6.79632592 0-11.28675555 4.49042963-11.28675556 11.28675556v300.4946963c0 6.79632592 4.49042963 11.28675555 11.28675556 11.28675556h4.49042963c6.79632592 0 11.28675555-4.49042963 11.28675555-11.28675556V227.28248889c0-6.79632592-4.49042963-13.59265185-11.28675555-13.59265186z m0 0M79.09831111 568.43377778c0 7.5245037 6.06814815 13.59265185 13.59265186 13.59265185 7.5245037 0 13.59265185-6.06814815 13.59265185-13.59265185 0-7.5245037-6.06814815-13.59265185-13.59265185-13.59265186-7.5245037 0-13.59265185 6.06814815-13.59265186 13.59265186z m0 0" fill="#FCFCFF" p-id="3125"></path></svg>