<svg t="1544375299036" class="icon" style="" viewBox="0 0 1024 1024" version="1.1" xmlns="http://www.w3.org/2000/svg" p-id="2134" xmlns:xlink="http://www.w3.org/1999/xlink" width="200" height="200"><defs><style type="text/css"></style></defs><path d="M659.911111 0H176.355556C125.155556 0 85.333333 39.822222 85.333333 91.022222v841.955556c0 51.2 39.822222 91.022222 91.022223 91.022222h671.288888c51.2 0 91.022222-39.822222 91.022223-91.022222V273.066667L659.911111 0z" fill="#0CB7BE" p-id="2135"></path><path d="M546.133333 819.2c-108.088889 0-193.422222-85.333333-193.422222-193.422222h193.422222V432.355556c108.088889 0 193.422222 85.333333 193.422223 193.422222s-85.333333 193.422222-193.422223 193.422222z" fill="#FFFFFF" p-id="2136"></path><path d="M256 529.066667c0-108.088889 85.333333-193.422222 193.422222-193.422223v193.422223H256z" fill="#FFFFFF" p-id="2137"></path><path d="M671.288889 261.688889V11.377778l256 250.311111h-256z" fill="#A2E6DF" p-id="2138"></path></svg>